#!OML:ASF E:\Mandelcareful walks\Project 1\Capture day 1\Session 1\Subject1.ASF
:FULLY-SPECIFIED
:DEGREES
154
root 8.6917 16.2118 0.299945 -179.754 -82.1348 186.011
lowerback 28.9861 2.55682 -3.86943
upperback 7.7238 1.38067 0.109924
thorax -7.3929 0.358026 1.92268
lowerneck -25.5455 -2.66024 -7.23316
upperneck 24.051 -1.07818 0.256671
head 12.2484 -1.17732 1.08899
rclavicle 1.61016e-014 8.54774e-015
rhumerus -16.3709 -3.23724 -83.2298
rradius 60.7745
rwrist -15.8503
rhand -12.7505 -26.2999
rfingers 7.12502
rthumb 13.3337 -55.8533
lclavicle 1.61016e-014 8.54774e-015
lhumerus -6.61607 -1.94175 78.6874
lradius 39.4294
lwrist 19.5625
lhand -23.7215 -9.94223
lfingers 7.12502
lthumb 2.74634 20.0198
rfemur -27.4085 -10.1014 5.2536
rtibia 27.9742
rfoot -1.87096 -1.81518
rtoes -9.3132
lfemur -33.5472 16.1016 -16.3948
ltibia 49.2035
lfoot -19.0638 6.02156
ltoes 4.05008
155
root 8.69019 16.1852 0.223491 -180.157 -82.5415 186.563
lowerback 29.3573 2.38843 -3.78841
upperback 7.64531 1.19213 0.28463
thorax -7.65032 0.274661 2.13338
lowerneck -25.7497 -3.36323 -7.96119
upperneck 24.4023 -1.96185 0.942706
head 12.4815 -1.5478 1.31079
rclavicle 1.33186e-014 -3.97569e-016
rhumerus -16.2477 -3.25649 -83.264
rradius 61.5447
rwrist -16.3639
rhand -12.841 -27.0031
rfingers 7.12502
rthumb 13.2465 -56.5622
lclavicle 1.33186e-014 -3.97569e-016
lhumerus -6.47841 -2.04005 78.8624
lradius 40.1666
lwrist 19.3171
lhand -24.3227 -8.45358
lfingers 7.12502
lthumb 2.1657 21.5152
rfemur -27.7996 -10.0358 5.60379
rtibia 28.7897
rfoot -2.11472 -2.91142
rtoes -9.58479
lfemur -33.8388 16.0448 -16.0838
ltibia 49.2273
lfoot -18.8647 5.68231
ltoes 3.76484
156
root 8.64945 16.1827 0.153338 -175.758 -83.1875 182.013
lowerback 29.4666 2.14487 -3.896
upperback 7.79408 0.829509 0.223747
thorax -7.51144 0.0942982 2.25451
lowerneck -25.8331 -3.98994 -8.39672
upperneck 24.5478 -2.7645 1.27485
head 12.6107 -1.89734 1.36212
rclavicle -1.78906e-015 1.35174e-014
rhumerus -16.0078 -3.43769 -83.4007
rradius 62.0618
rwrist -16.6627
rhand -13.225 -27.7697
rfingers 7.12502
rthumb 12.8763 -57.3525
lclavicle -1.78906e-015 1.35174e-014
lhumerus -6.28694 -2.28442 78.965
lradius 40.9254
lwrist 19.1546
lhand -24.4909 -7.42471
lfingers 7.12502
lthumb 2.00325 22.5456
rfemur -27.6085 -10.843 5.18819
rtibia 29.5663
rfoot -2.654 -3.68909
rtoes -10.2592
lfemur -33.4973 15.6628 -16.4506
ltibia 49.2125
lfoot -19.0631 5.35264
ltoes 3.38202
157
root 8.64207 16.1734 0.0619451 -173.321 -83.8046 179.639
lowerback 29.8884 1.9416 -3.85643
upperback 7.6719 0.576819 0.285208
thorax -7.83468 -0.0137528 2.38952
lowerneck -25.4627 -4.52598 -8.76355
upperneck 24.5241 -3.48497 1.48544
head 12.5834 -2.22044 1.37404
rclavicle -9.54166e-015 4.77083e-015
rhumerus -16.1126 -3.79786 -83.4983
rradius 62.4811
rwrist -16.8457
rhand -13.8306 -27.6464
rfingers 7.12502
rthumb 12.2924 -57.265
lclavicle -9.54166e-015 4.77083e-015
lhumerus -6.35154 -2.51392 79.0752
lradius 41.6288
lwrist 18.9301
lhand -24.4117 -8.33735
lfingers 7.12502
lthumb 2.07971 21.6323
rfemur -27.8564 -10.9734 5.1904
rtibia 30.3525
rfoot -3.42632 -4.28683
rtoes -10.3293
lfemur -33.6732 15.3545 -16.4144
ltibia 49.2836
lfoot -18.9627 5.08623
ltoes 2.46514
158
root 8.64229 16.1596 -0.0397179 -172.516 -84.4697 179.184
lowerback 30.0704 1.69024 -3.6046
upperback 7.4353 0.360458 0.391536
thorax -8.17503 -0.0965015 2.44129
lowerneck -24.9469 -4.98631 -9.06019
upperneck 24.4702 -4.13905 1.66932
head 12.514 -2.513 1.3793
rclavicle 1.19271e-015 5.06901e-015
rhumerus -16.4947 -4.20868 -83.5839
rradius 62.9948
rwrist -16.9686
rhand -14.0266 -26.9767
rfingers 7.12502
rthumb 12.1034 -56.6066
lclavicle 1.19271e-015 5.06901e-015
lhumerus -6.64882 -2.66018 79.1961
lradius 42.5391
lwrist 18.4415
lhand -24.2012 -9.69913
lfingers 7.12502
lthumb 2.28304 20.2684
rfemur -28.4005 -11.2396 5.62767
rtibia 31.1271
rfoot -4.15482 -4.77926
rtoes -9.89624
lfemur -34.2469 15.1273 -16.1563
ltibia 49.3658
lfoot -18.6561 4.79503
ltoes 1.5046
159
root 8.64031 16.1418 -0.1428 -169.688 -85.4049 176.734
lowerback 30.1646 1.29226 -3.29893
upperback 7.27872 -0.0278904 0.460099
thorax -8.37254 -0.266783 2.48233
lowerneck -24.6398 -5.39038 -9.31118
upperneck 24.3848 -4.72059 1.90784
head 12.4707 -2.75916 1.40944
rclavicle -3.67752e-015 -1.47101e-014
rhumerus -16.6103 -4.4803 -83.6747
rradius 63.4153
rwrist -17.0916
rhand -14.1116 -26.9875
rfingers 7.12502
rthumb 12.0215 -56.6223
lclavicle -3.67752e-015 -1.47101e-014
lhumerus -6.92059 -2.66188 79.332
lradius 43.6002
lwrist 18.0163
lhand -23.9508 -9.79193
lfingers 7.12502
lthumb 2.52489 20.1729
rfemur -28.8192 -12.0183 5.9513
rtibia 31.9463
rfoot -4.82136 -5.43209
rtoes -9.51152
lfemur -34.8535 14.6223 -16.0517
ltibia 49.469
lfoot -18.4137 4.47202
ltoes 0.972697
